<svg width="132" height="28" viewBox="0 0 132 28" fill="none" xmlns="http://www.w3.org/2000/svg">
<g clip-path="url(#clip0_0_354)">
<path d="M124.785 8.27425C123.837 8.27392 122.892 8.37537 121.966 8.57676L124.106 0.852051H118.781C117.915 0.85229 117.072 1.12903 116.384 1.63969C115.695 2.15036 115.198 2.86672 114.968 3.67867L113.32 9.46975C114.098 9.45283 114.875 9.3825 115.643 9.25923C113.6 10.5065 111.235 11.1667 108.822 11.1638C108.293 11.1622 107.764 11.1291 107.238 11.0645C105.973 10.9471 104.732 10.6469 103.558 10.174L101.254 18.2641C103.13 19.2502 105.23 19.7652 107.363 19.7621C108.425 19.7631 109.483 19.6363 110.513 19.3846L108.341 27.2521H113.748C114.597 27.254 115.423 26.9841 116.098 26.4841C116.773 25.9841 117.26 25.2819 117.484 24.486L119.05 18.9054C117.813 19.0339 116.603 19.3371 115.456 19.8056C116.63 18.8573 117.969 18.1198 119.409 17.6276L119.563 17.5768L119.847 17.4848L120.076 17.4195L120.37 17.3397L120.604 17.2816L120.9 17.2138L121.149 17.1654L121.441 17.1098L121.71 17.0686L121.989 17.0275L122.288 16.996L122.537 16.9694L122.893 16.9452L123.102 16.9331C123.291 16.9331 123.48 16.921 123.672 16.921H123.685C123.906 16.921 124.128 16.921 124.347 16.9379L124.549 16.9524C124.703 16.9524 124.86 16.9718 125.012 16.9888L125.236 17.0154C125.381 17.0323 125.525 17.0493 125.669 17.0711L125.891 17.1098C126.033 17.1339 126.175 17.1581 126.317 17.1872L126.529 17.2356C126.671 17.2671 126.813 17.2985 126.955 17.3348L127.156 17.3905C127.298 17.4292 127.438 17.4679 127.577 17.5115L127.774 17.5768C127.913 17.6228 128.053 17.6688 128.187 17.7172L128.379 17.7898C128.513 17.8406 128.648 17.8938 128.78 17.9495L128.837 17.9713L131.133 9.90778C129.2 8.84033 127.014 8.2807 124.79 8.28397" fill="white"/>
<path d="M51.1399 10.9779C50.523 10.2131 49.7215 9.60647 48.8056 9.21133C47.8898 8.8162 46.8876 8.64465 45.8871 8.71175C44.4549 8.71374 43.0324 8.93915 41.6744 9.37931C41.1578 9.53712 40.6133 9.59095 40.0745 9.53748C39.5356 9.48402 39.0137 9.3244 38.541 9.06845L35.0026 22.2562H40.2325C40.2325 22.2562 41.8426 16.0755 42.0842 15.2292C42.1613 14.5475 42.502 13.9191 43.038 13.4702C43.574 13.0213 44.2657 12.785 44.9743 12.8088C46.1138 12.8088 47.1719 13.2815 46.6831 15.0528C46.5615 15.4859 44.709 22.2569 44.709 22.2569H49.8977L51.7534 15.4843C51.9908 14.6856 52.0735 13.8512 51.9974 13.0234C51.9058 12.2797 51.6096 11.5733 51.1399 10.9779ZM28.8158 8.71328C27.0544 8.73194 25.3005 8.93684 23.5852 9.32432C23.5646 9.4007 22.7308 12.1977 22.7308 12.1977C22.7308 12.1977 27.8793 10.9756 29.4664 12.1977C30.1771 12.7324 29.9347 13.3793 29.731 14.0087C29.3151 13.9006 28.8933 13.8152 28.4675 13.7528C27.7826 13.6511 27.09 13.6049 26.3971 13.6146C25.5016 13.609 24.6081 13.6948 23.7312 13.8704C22.9469 14.0391 22.188 14.3038 21.4729 14.6579C20.8019 14.9953 20.2066 15.4579 19.7214 16.019C19.2194 16.5993 18.8888 17.2999 18.7644 18.0469C18.691 18.6104 18.7601 19.1828 18.9655 19.7149C19.171 20.247 19.5068 20.723 19.9441 21.1021C21.3665 22.1809 23.1486 22.7176 24.9528 22.6106C26.2947 22.6187 27.6288 22.4122 28.9011 21.9995C29.4783 21.7436 30.1131 21.6328 30.7465 21.6775C31.3798 21.7223 31.9912 21.921 32.5239 22.2554L34.5944 14.4998C34.8645 13.8071 34.9482 13.0595 34.8377 12.3269C34.7272 11.5944 34.4261 10.9011 33.9627 10.3119C33.0483 9.3037 31.3189 8.77209 28.8158 8.71328ZM25.4803 19.4828C24.9054 19.4828 23.2424 19.1276 23.5251 17.9079C23.6007 17.6606 23.7327 17.4328 23.9115 17.2415C24.0903 17.0502 24.3112 16.9002 24.558 16.8027C25.7319 16.3627 27.0181 16.2869 28.2385 16.5857C28.5288 16.6447 28.8143 16.7236 29.0929 16.8217C28.9193 17.6105 28.4587 18.3127 27.795 18.8006C27.1313 19.2886 26.3085 19.5299 25.4764 19.4805L25.4803 19.4828ZM83.5983 10.2309C82.1774 9.15022 80.3962 8.61105 78.5919 8.71557C77.1841 8.69474 75.782 8.89411 74.4399 9.30599C66.8704 12.1206 67.5819 18.3608 69.8395 20.4467C71.1048 21.7346 72.8463 22.4849 74.6824 22.5334C76.8786 22.7955 79.1077 22.5602 81.1938 21.846C81.2728 21.6688 81.7465 19.8785 82.0277 18.9535C81.238 19.3476 76.3501 20.588 74.2741 19.1704C73.9567 18.9609 73.7166 18.659 73.5888 18.3084C73.4609 17.9578 73.4521 17.577 73.5634 17.2212C73.9709 17.319 74.5608 17.516 75.0077 17.5764C75.6927 17.6781 76.3852 17.7243 77.0782 17.7146C77.9736 17.7202 78.8671 17.6344 79.744 17.4588C80.5283 17.2901 81.2872 17.0254 82.0024 16.6713C82.6763 16.3345 83.2743 15.8716 83.7617 15.3094C84.2637 14.7292 84.5944 14.0285 84.7188 13.2815C84.8075 12.7231 84.7516 12.1521 84.556 11.6197C84.3604 11.0872 84.0314 10.6101 83.5983 10.2309ZM79.9556 13.4206C79.8794 13.6675 79.7468 13.8948 79.5676 14.0856C79.3885 14.2763 79.1673 14.4257 78.9204 14.5227C77.7465 14.9626 76.4603 15.0384 75.2399 14.7396C74.9959 14.7007 74.3649 14.5426 74.0388 14.4639C74.3306 13.6788 74.8714 13.0029 75.584 12.5328C76.2966 12.0627 77.1446 11.8225 78.0068 11.8464C78.5919 11.8426 80.2612 12.2 79.9548 13.4175L79.9556 13.4206ZM90.0686 4.63843C89.7591 4.64945 89.4611 4.75416 89.2164 4.93779C88.9717 5.12141 88.7928 5.3747 88.7049 5.66192L84.6153 20.1099V20.1297L84.0049 22.2554H89.5254L94.5254 4.63843H90.0686ZM69.2338 4.79653C68.6806 4.79664 68.1339 4.91278 67.6316 5.13694C67.1292 5.36111 66.6831 5.68796 66.324 6.09499L59.8031 13.5145L57.5494 4.79653H51.8521L57.1633 23.9304L74.5623 4.79653H69.2338ZM13.6143 4.63843H4.92818L0 22.2562H2.8293C4.51915 22.2562 5.75968 22.0591 6.18767 20.4842L7.00179 17.5115H9.74818C19.3534 17.5115 20.0657 12.1374 20.3713 11.0749C20.5734 10.386 21.2865 4.63843 13.6143 4.63843ZM15.0822 10.8191C14.7758 11.6484 14.1947 12.3565 13.4293 12.8334C12.6639 13.3104 11.7571 13.5294 10.8497 13.4565H8.14046L9.58473 8.2993H12.4338C15.1809 8.28021 15.2623 10.1691 15.0822 10.8191Z" fill="white"/>
</g>
<defs>
<clipPath id="clip0_0_354">
<rect width="132" height="28" fill="white"/>
</clipPath>
</defs>
</svg>
