<svg id="svg" version="1.1" xmlns="http://www.w3.org/2000/svg" xmlns:xlink="http://www.w3.org/1999/xlink" width="400" height="152.7655838454785" viewBox="0, 0, 400,152.7655838454785"><g id="svgg"><path id="path0" d="M105.466 21.346 C 104.577 22.811,103.502 24.697,102.624 26.333 C 102.255 27.021,101.822 27.733,101.663 27.917 C 101.503 28.100,101.053 28.848,100.663 29.578 C 100.273 30.309,99.801 31.171,99.615 31.495 C 99.430 31.819,99.088 32.421,98.856 32.833 C 98.624 33.246,98.374 33.608,98.300 33.639 C 98.227 33.669,98.167 33.838,98.167 34.014 C 98.167 34.190,98.104 34.333,98.027 34.333 C 97.894 34.333,97.454 35.104,97.429 35.381 C 97.422 35.453,97.342 35.566,97.250 35.631 C 97.095 35.742,96.795 36.269,95.807 38.167 C 95.592 38.579,95.360 38.942,95.292 38.972 C 95.223 39.003,95.167 39.134,95.167 39.264 C 95.167 39.394,95.100 39.500,95.019 39.500 C 94.938 39.500,94.831 39.631,94.780 39.792 C 94.686 40.091,93.985 41.351,93.830 41.500 C 93.782 41.546,93.651 41.771,93.537 42.000 C 93.080 42.927,92.067 44.656,91.813 44.944 C 91.665 45.112,91.581 45.354,91.627 45.482 C 91.678 45.623,91.637 45.668,91.522 45.597 C 91.412 45.529,91.333 45.589,91.333 45.740 C 91.333 45.883,91.254 46.000,91.157 46.000 C 91.060 46.000,91.026 46.074,91.082 46.165 C 91.138 46.255,91.028 46.496,90.838 46.700 C 90.647 46.905,90.529 47.168,90.574 47.286 C 90.619 47.404,90.592 47.500,90.513 47.500 C 90.434 47.500,90.322 47.691,90.263 47.923 C 90.205 48.156,90.084 48.302,89.995 48.247 C 89.849 48.157,89.762 48.380,89.814 48.708 C 89.824 48.777,89.758 48.833,89.667 48.833 C 89.575 48.833,89.500 48.940,89.500 49.069 C 89.500 49.199,89.406 49.344,89.292 49.390 C 89.135 49.454,89.145 49.518,89.333 49.651 C 89.549 49.804,89.543 49.829,89.292 49.831 C 89.131 49.832,89.000 49.894,89.000 49.969 C 89.000 50.043,88.847 50.268,88.660 50.469 C 88.473 50.669,88.398 50.833,88.494 50.833 C 88.589 50.833,88.667 50.916,88.667 51.018 C 88.667 51.119,88.554 51.159,88.417 51.106 C 88.264 51.048,88.167 51.106,88.167 51.255 C 88.167 51.390,88.087 51.500,87.990 51.500 C 87.893 51.500,87.861 51.576,87.918 51.669 C 87.976 51.763,88.112 51.786,88.220 51.721 C 88.355 51.639,88.352 51.683,88.208 51.860 C 88.047 52.060,87.990 54.720,87.958 63.670 C 87.927 72.443,87.869 75.238,87.718 75.289 C 87.608 75.325,87.565 75.475,87.621 75.621 C 87.679 75.772,87.654 75.845,87.563 75.789 C 87.475 75.734,87.390 75.850,87.376 76.045 C 87.345 76.458,87.836 75.797,88.183 74.960 C 88.288 74.707,88.440 74.500,88.520 74.500 C 88.601 74.500,88.648 74.442,88.625 74.372 C 88.602 74.301,88.755 74.059,88.966 73.833 C 89.176 73.606,89.274 73.397,89.183 73.367 C 89.093 73.336,89.060 73.205,89.110 73.074 C 89.160 72.942,89.269 72.877,89.351 72.927 C 89.433 72.978,89.500 72.903,89.500 72.760 C 89.500 72.617,89.557 72.500,89.627 72.500 C 89.760 72.500,89.841 72.364,90.458 71.113 C 90.664 70.695,90.909 70.306,91.002 70.249 C 91.096 70.191,91.129 70.074,91.076 69.988 C 91.023 69.903,91.046 69.833,91.126 69.833 C 91.206 69.833,91.373 69.574,91.497 69.258 C 91.621 68.941,91.785 68.720,91.861 68.767 C 91.938 68.814,92.000 68.761,92.000 68.648 C 92.000 68.535,92.131 68.293,92.292 68.109 C 92.504 67.867,92.515 67.813,92.333 67.911 C 92.196 67.985,92.241 67.880,92.434 67.677 L 92.784 67.308 104.959 67.327 L 117.134 67.345 117.513 66.506 C 117.722 66.044,117.949 65.667,118.017 65.667 C 118.136 65.667,118.426 65.174,119.827 62.583 C 120.174 61.942,120.687 61.042,120.968 60.583 C 121.832 59.172,122.513 57.986,123.458 56.250 C 123.957 55.333,124.497 54.433,124.658 54.250 C 124.820 54.067,125.213 53.429,125.533 52.833 C 127.190 49.741,127.757 48.732,127.992 48.460 C 128.244 48.166,130.230 44.656,130.797 43.500 C 130.955 43.179,131.169 42.842,131.274 42.750 C 131.460 42.588,133.000 39.924,133.000 39.765 C 133.000 39.721,133.678 38.550,134.508 37.163 C 135.337 35.775,136.358 33.997,136.776 33.210 C 137.194 32.424,137.678 31.628,137.851 31.442 C 138.025 31.256,138.167 31.050,138.167 30.984 C 138.167 30.918,138.719 29.901,139.394 28.724 C 140.069 27.546,140.674 26.415,140.739 26.208 C 140.803 26.002,140.919 25.833,140.997 25.833 C 141.130 25.833,142.196 24.065,142.604 23.167 C 142.708 22.938,143.102 22.226,143.480 21.586 C 143.858 20.946,144.167 20.365,144.167 20.294 C 144.167 20.224,135.620 20.167,125.174 20.167 L 106.181 20.167 105.466 21.346 M124.833 31.307 C 124.833 31.384,124.678 31.628,124.487 31.849 C 124.162 32.226,122.510 35.118,121.783 36.582 C 121.602 36.948,121.359 37.323,121.244 37.415 C 121.128 37.508,120.716 38.183,120.328 38.917 C 119.939 39.650,119.294 40.820,118.894 41.516 C 118.494 42.213,118.167 42.869,118.167 42.975 C 118.167 43.080,118.097 43.167,118.013 43.167 C 117.872 43.167,117.565 43.668,116.381 45.833 C 114.890 48.561,114.626 49.000,114.478 49.000 C 114.388 49.000,114.360 49.075,114.417 49.167 C 114.473 49.258,114.440 49.333,114.343 49.333 C 114.246 49.333,114.167 49.417,114.167 49.520 C 114.167 49.622,113.913 50.129,113.603 50.645 C 113.293 51.161,112.720 52.183,112.330 52.917 C 111.939 53.650,111.572 54.288,111.513 54.333 C 111.454 54.379,111.158 54.808,110.855 55.287 L 110.304 56.158 104.777 56.204 C 101.737 56.229,99.225 56.237,99.193 56.221 C 99.162 56.205,99.435 55.680,99.799 55.055 C 100.164 54.429,100.729 53.411,101.056 52.794 C 101.383 52.176,101.804 51.506,101.992 51.304 C 102.180 51.102,102.333 50.806,102.333 50.645 C 102.333 50.484,102.400 50.312,102.482 50.261 C 102.659 50.151,104.500 46.927,104.500 46.725 C 104.500 46.647,104.688 46.365,104.917 46.099 C 105.146 45.833,105.333 45.558,105.333 45.489 C 105.333 45.419,105.596 44.964,105.917 44.477 C 106.237 43.990,106.500 43.533,106.500 43.462 C 106.500 43.392,107.184 42.190,108.021 40.792 C 108.857 39.394,109.883 37.612,110.300 36.833 C 110.718 36.054,111.284 35.085,111.558 34.679 C 111.832 34.273,112.260 33.561,112.510 33.096 C 112.759 32.631,113.103 32.007,113.273 31.709 L 113.583 31.169 119.208 31.168 C 122.302 31.167,124.833 31.230,124.833 31.307 M87.560 52.417 C 87.619 52.569,87.561 52.667,87.411 52.667 C 87.277 52.667,87.167 52.744,87.167 52.839 C 87.167 52.957,87.270 52.956,87.494 52.837 C 87.774 52.687,87.815 52.167,87.548 52.167 C 87.502 52.167,87.508 52.279,87.560 52.417 M97.562 78.375 C 97.328 78.765,96.675 79.900,96.110 80.898 C 95.545 81.896,94.964 82.908,94.819 83.148 C 94.135 84.274,93.629 85.172,93.116 86.167 C 92.809 86.763,92.339 87.578,92.071 87.979 C 91.803 88.379,91.471 88.904,91.335 89.145 C 91.198 89.386,90.740 90.183,90.317 90.917 C 89.894 91.650,89.334 92.681,89.073 93.208 C 88.811 93.735,88.544 94.167,88.478 94.167 C 88.413 94.167,88.137 94.598,87.865 95.125 C 87.261 96.297,86.922 96.922,86.107 98.371 C 85.760 98.988,85.524 99.571,85.584 99.667 C 85.643 99.763,85.630 99.831,85.554 99.818 C 85.202 99.757,85.039 99.868,84.857 100.292 L 84.661 100.750 84.977 100.382 C 85.497 99.775,85.500 99.839,85.500 110.778 C 85.500 120.227,85.527 121.333,85.760 121.333 C 85.903 121.333,85.977 121.264,85.924 121.178 C 85.871 121.093,85.905 120.975,86.000 120.917 C 86.095 120.858,86.122 120.729,86.060 120.629 C 85.991 120.518,86.027 120.497,86.152 120.574 C 86.282 120.654,86.389 120.573,86.447 120.350 C 86.498 120.158,86.603 120.000,86.681 120.000 C 86.759 120.000,86.776 119.869,86.718 119.708 C 86.661 119.548,86.671 119.469,86.742 119.533 C 86.813 119.597,87.038 119.334,87.242 118.949 C 88.141 117.257,88.547 116.576,88.721 116.467 C 88.823 116.404,88.859 116.303,88.800 116.245 C 88.742 116.186,88.847 115.962,89.035 115.746 C 89.436 115.284,89.714 114.814,90.093 113.958 C 90.245 113.615,90.431 113.333,90.505 113.333 C 90.580 113.333,90.723 113.084,90.824 112.778 C 90.925 112.473,91.349 111.705,91.767 111.070 C 92.184 110.436,93.087 108.904,93.772 107.667 C 94.457 106.429,95.154 105.229,95.321 105.000 C 95.488 104.771,96.249 103.458,97.013 102.083 C 97.777 100.708,98.447 99.546,98.502 99.500 C 98.618 99.405,99.326 98.177,100.041 96.833 C 100.960 95.106,101.564 94.083,101.699 94.028 C 101.773 93.997,101.833 93.866,101.833 93.736 C 101.833 93.606,101.903 93.500,101.989 93.500 C 102.074 93.500,102.198 93.331,102.263 93.125 C 102.329 92.919,102.546 92.487,102.747 92.167 C 102.948 91.846,103.466 90.923,103.897 90.116 C 104.328 89.309,105.015 88.161,105.424 87.564 C 105.832 86.967,106.167 86.417,106.167 86.342 C 106.167 86.266,106.578 85.502,107.082 84.644 C 107.585 83.786,107.997 82.993,107.998 82.883 C 107.999 82.773,108.098 82.623,108.218 82.550 C 108.534 82.357,110.833 78.226,110.833 77.852 C 110.833 77.719,109.022 77.667,104.410 77.667 L 97.987 77.667 97.562 78.375 M85.223 121.812 C 84.974 122.020,84.909 122.185,85.013 122.348 C 85.156 122.574,85.183 122.549,85.229 122.153 C 85.241 122.054,85.396 121.867,85.574 121.737 C 85.751 121.606,85.826 121.502,85.740 121.506 C 85.654 121.509,85.421 121.646,85.223 121.812 " stroke="none" fill="#e1c50b" fill-rule="evenodd"></path><path id="path1" d="M87.750 51.806 C 87.704 51.851,87.667 52.020,87.667 52.181 C 87.667 52.341,87.610 52.504,87.542 52.542 C 87.473 52.581,87.529 52.586,87.667 52.554 C 87.804 52.522,87.729 52.645,87.500 52.827 C 87.271 53.010,87.154 53.161,87.240 53.163 C 87.326 53.165,87.251 53.285,87.074 53.429 C 86.896 53.573,86.831 53.652,86.931 53.603 C 87.030 53.554,87.111 53.617,87.111 53.741 C 87.111 53.866,87.019 53.933,86.906 53.889 C 86.793 53.846,86.644 53.902,86.574 54.014 C 86.489 54.153,86.523 54.179,86.683 54.097 C 86.828 54.021,86.818 54.059,86.655 54.196 C 86.511 54.317,86.148 54.904,85.848 55.500 C 85.548 56.096,85.167 56.733,85.001 56.917 C 84.835 57.100,84.121 58.300,83.414 59.583 C 82.708 60.867,82.033 62.029,81.915 62.167 C 81.797 62.304,81.543 62.698,81.350 63.042 C 81.158 63.385,80.840 63.948,80.644 64.292 C 80.449 64.635,79.964 65.501,79.568 66.216 C 79.172 66.930,78.601 67.896,78.299 68.362 C 77.997 68.827,77.748 69.255,77.746 69.313 C 77.743 69.370,77.625 69.604,77.483 69.833 C 77.051 70.530,76.094 72.206,75.674 73.000 C 75.456 73.412,75.102 73.962,74.889 74.221 C 74.675 74.480,74.454 74.874,74.399 75.096 C 74.343 75.318,74.235 75.500,74.160 75.500 C 74.084 75.500,73.970 75.669,73.906 75.875 C 73.769 76.313,72.326 78.876,72.145 79.003 C 72.077 79.051,71.940 79.276,71.841 79.503 C 71.742 79.731,71.435 80.280,71.160 80.723 C 70.884 81.167,70.315 82.179,69.895 82.973 C 69.475 83.767,69.027 84.535,68.899 84.680 C 68.771 84.825,68.667 85.033,68.667 85.143 C 68.667 85.254,68.554 85.387,68.417 85.440 C 68.279 85.492,68.167 85.613,68.167 85.708 C 68.167 85.803,67.717 86.665,67.167 87.624 C 66.617 88.582,66.167 89.423,66.167 89.492 C 66.167 89.560,65.939 89.930,65.662 90.314 C 65.384 90.697,64.926 91.440,64.644 91.964 C 63.455 94.175,62.252 96.254,62.130 96.306 C 62.059 96.336,62.000 96.461,62.000 96.583 C 62.000 96.706,61.935 96.831,61.856 96.861 C 61.628 96.949,60.333 99.453,60.333 99.806 C 60.333 99.981,60.765 100.850,61.292 101.736 C 63.076 104.736,63.371 105.247,64.286 106.917 C 64.788 107.833,65.314 108.712,65.454 108.870 C 65.594 109.027,65.949 109.627,66.243 110.203 C 66.955 111.596,67.189 111.611,67.848 110.302 C 68.140 109.724,68.658 108.837,68.999 108.333 C 69.340 107.829,69.921 106.854,70.290 106.167 C 71.548 103.820,72.348 102.426,72.591 102.158 C 72.724 102.011,72.833 101.849,72.833 101.798 C 72.833 101.646,74.990 97.820,75.594 96.899 C 75.901 96.432,76.613 95.194,77.176 94.149 C 77.739 93.105,78.416 91.929,78.681 91.536 C 78.946 91.144,79.403 90.394,79.697 89.870 C 79.990 89.346,80.404 88.617,80.615 88.250 C 80.827 87.883,81.120 87.321,81.266 87.000 C 81.413 86.679,81.700 86.192,81.904 85.917 C 82.108 85.642,82.457 85.079,82.679 84.667 C 82.901 84.254,83.177 83.818,83.292 83.696 C 83.406 83.575,83.500 83.401,83.500 83.309 C 83.500 83.217,83.815 82.603,84.200 81.946 C 84.585 81.288,85.036 80.487,85.203 80.167 C 85.553 79.491,85.878 78.952,86.007 78.833 C 86.344 78.524,86.840 77.419,86.668 77.361 C 86.559 77.325,86.646 77.208,86.860 77.102 C 87.075 76.995,87.276 76.723,87.308 76.496 C 87.339 76.269,87.440 75.993,87.530 75.882 C 87.621 75.772,87.651 75.609,87.597 75.522 C 87.542 75.434,87.592 75.330,87.707 75.292 C 87.872 75.237,87.925 72.765,87.958 63.670 C 87.984 56.390,88.060 52.045,88.164 51.920 C 88.327 51.724,87.939 51.617,87.750 51.806 M84.918 100.476 C 84.735 100.718,84.604 100.973,84.626 101.042 C 84.648 101.110,84.592 101.167,84.500 101.167 C 84.408 101.167,84.333 101.279,84.333 101.417 C 84.333 101.554,84.263 101.667,84.178 101.667 C 84.092 101.667,83.969 101.835,83.905 102.042 C 83.742 102.557,82.348 104.978,81.882 105.554 C 81.672 105.814,81.500 106.107,81.500 106.206 C 81.500 106.305,81.144 106.959,80.708 107.660 C 80.273 108.360,79.654 109.438,79.333 110.054 C 79.012 110.670,78.548 111.411,78.301 111.702 C 78.055 111.992,77.890 112.291,77.936 112.365 C 77.982 112.439,77.940 112.500,77.843 112.500 C 77.746 112.500,77.667 112.581,77.667 112.679 C 77.667 112.921,75.690 116.496,75.324 116.917 C 75.164 117.100,74.678 117.925,74.244 118.750 C 73.810 119.575,73.302 120.518,73.116 120.845 L 72.778 121.439 73.666 123.095 C 74.154 124.005,74.795 125.125,75.091 125.583 C 75.610 126.390,76.693 128.277,77.720 130.167 C 78.416 131.446,79.198 132.517,79.390 132.453 C 79.479 132.424,80.085 131.410,80.737 130.202 C 81.389 128.993,82.034 127.869,82.170 127.705 C 82.435 127.385,83.038 126.330,83.573 125.250 C 83.754 124.883,84.004 124.481,84.126 124.355 C 84.249 124.229,84.393 123.912,84.445 123.649 C 84.498 123.387,84.604 123.211,84.682 123.260 C 84.849 123.362,85.065 122.612,84.960 122.299 C 84.920 122.180,85.114 121.915,85.392 121.708 C 85.671 121.502,85.809 121.333,85.699 121.333 C 85.547 121.333,85.500 118.844,85.500 110.760 C 85.500 104.944,85.444 100.152,85.375 100.110 C 85.306 100.069,85.100 100.233,84.918 100.476 M85.349 121.898 C 85.231 122.040,85.214 122.176,85.308 122.234 C 85.394 122.288,85.512 122.209,85.570 122.059 C 85.711 121.690,85.593 121.604,85.349 121.898 " stroke="none" fill="#ceac15" fill-rule="evenodd"></path><path id="path2" d="M14.363 20.375 C 14.415 20.577,15.843 23.074,16.849 24.723 C 17.120 25.167,17.686 26.179,18.107 26.973 C 18.529 27.767,19.117 28.792,19.415 29.250 C 20.032 30.200,20.929 31.765,22.058 33.862 C 22.486 34.656,22.896 35.331,22.970 35.362 C 23.091 35.411,23.490 36.120,25.301 39.500 C 25.620 40.096,26.011 40.733,26.171 40.917 C 26.330 41.100,26.968 42.188,27.589 43.333 C 28.782 45.536,28.913 45.764,29.759 47.083 C 30.052 47.542,30.610 48.514,30.999 49.245 C 32.190 51.485,32.693 52.333,32.829 52.333 C 32.901 52.333,33.058 52.577,33.179 52.875 C 33.300 53.173,33.730 53.979,34.134 54.667 C 34.538 55.354,35.056 56.292,35.286 56.750 C 35.516 57.208,35.836 57.733,35.999 57.917 C 36.161 58.100,36.613 58.850,37.002 59.583 C 37.921 61.314,38.909 63.040,39.579 64.083 C 39.873 64.542,40.290 65.254,40.507 65.667 C 41.500 67.561,42.555 69.333,42.687 69.333 C 42.768 69.333,42.833 69.420,42.833 69.525 C 42.833 69.631,43.185 70.325,43.615 71.067 C 44.044 71.809,44.646 72.895,44.953 73.479 C 45.259 74.063,45.664 74.738,45.854 74.979 C 46.044 75.220,46.784 76.504,47.500 77.833 C 48.216 79.162,48.948 80.438,49.127 80.667 C 49.306 80.896,49.699 81.533,49.999 82.083 C 51.855 85.480,53.888 88.879,54.107 88.952 C 54.293 89.014,57.167 84.334,58.102 82.445 C 58.366 81.911,58.706 81.341,58.857 81.180 C 59.008 81.018,59.449 80.292,59.837 79.568 C 60.225 78.843,60.598 78.175,60.667 78.083 C 60.735 77.992,61.109 77.324,61.497 76.599 C 61.885 75.874,62.325 75.149,62.476 74.987 C 62.627 74.825,62.971 74.256,63.241 73.721 C 63.511 73.187,64.092 72.125,64.533 71.362 C 64.973 70.598,65.333 69.910,65.333 69.832 C 65.333 69.754,65.434 69.590,65.557 69.467 C 65.901 69.123,66.527 68.081,67.490 66.250 C 67.972 65.333,68.532 64.358,68.734 64.083 C 69.110 63.574,69.525 62.851,71.116 59.939 C 71.610 59.035,72.126 58.183,72.263 58.047 C 73.308 57.001,73.257 55.235,72.159 54.500 C 72.091 54.454,71.719 53.817,71.333 53.083 C 70.503 51.506,69.487 49.743,68.736 48.576 C 68.438 48.114,67.900 47.176,67.540 46.493 C 66.386 44.305,65.805 43.333,65.651 43.333 C 65.568 43.333,65.500 43.253,65.500 43.154 C 65.500 43.055,65.209 42.474,64.853 41.862 C 64.497 41.251,63.882 40.129,63.487 39.371 C 63.091 38.613,62.629 37.843,62.460 37.662 C 62.290 37.480,61.956 36.938,61.716 36.457 C 61.476 35.977,61.097 35.293,60.875 34.939 C 60.653 34.585,60.222 33.797,59.916 33.189 C 59.611 32.581,59.205 31.903,59.014 31.683 C 58.823 31.463,58.667 31.219,58.667 31.141 C 58.667 31.064,62.268 31.000,66.669 31.000 L 74.672 31.000 73.753 32.737 C 73.247 33.693,72.833 34.549,72.833 34.639 C 72.833 34.874,74.866 38.638,75.173 38.971 C 75.314 39.125,75.796 39.925,76.245 40.750 C 76.694 41.575,77.376 42.828,77.761 43.534 C 78.146 44.240,78.582 44.939,78.730 45.087 C 78.879 45.236,79.000 45.427,79.000 45.512 C 79.000 45.597,79.098 45.667,79.217 45.667 C 79.401 45.667,80.833 43.398,80.833 43.106 C 80.833 42.951,81.874 41.281,82.142 41.007 C 82.273 40.873,82.487 40.507,82.617 40.195 C 82.748 39.882,83.034 39.342,83.254 38.994 C 83.473 38.646,84.002 37.706,84.428 36.904 C 84.854 36.103,85.333 35.307,85.493 35.136 C 85.653 34.964,85.999 34.395,86.262 33.870 C 86.782 32.833,87.901 30.876,88.954 29.166 C 89.321 28.569,89.831 27.669,90.087 27.166 C 90.587 26.184,91.648 24.357,91.877 24.083 C 92.100 23.816,93.994 20.429,93.997 20.292 C 93.999 20.223,81.737 20.167,66.750 20.167 C 46.301 20.167,39.500 20.215,39.500 20.359 C 39.500 20.464,39.837 21.136,40.250 21.851 C 40.662 22.566,41.000 23.194,41.000 23.246 C 41.000 23.451,42.553 26.000,42.678 26.000 C 42.751 26.000,42.863 26.169,42.927 26.375 C 42.990 26.581,43.347 27.275,43.721 27.917 C 44.094 28.558,44.653 29.571,44.963 30.167 C 45.273 30.762,45.661 31.400,45.825 31.583 C 45.989 31.767,46.463 32.557,46.879 33.340 C 47.294 34.122,47.866 35.157,48.150 35.639 C 48.434 36.120,48.667 36.550,48.667 36.593 C 48.667 36.635,48.956 37.101,49.309 37.627 C 49.662 38.153,50.127 38.921,50.342 39.333 C 51.303 41.176,52.387 43.000,52.521 43.000 C 52.601 43.000,52.667 43.086,52.667 43.192 C 52.667 43.298,52.995 43.954,53.396 44.650 C 53.798 45.347,54.404 46.442,54.743 47.083 C 55.082 47.725,55.495 48.400,55.661 48.583 C 55.827 48.767,56.109 49.217,56.288 49.583 C 56.865 50.765,58.630 53.904,58.959 54.333 C 59.135 54.563,59.485 55.106,59.738 55.540 L 60.197 56.331 59.686 57.161 C 59.405 57.617,58.948 58.304,58.671 58.687 C 58.394 59.070,58.167 59.452,58.167 59.536 C 58.167 59.620,57.792 60.323,57.334 61.099 C 56.876 61.874,56.397 62.751,56.271 63.046 C 56.145 63.342,55.859 63.792,55.636 64.047 C 55.413 64.301,55.010 64.955,54.740 65.498 C 54.292 66.400,54.000 66.736,54.000 66.348 C 54.000 66.102,52.650 63.833,52.504 63.833 C 52.430 63.833,52.251 63.552,52.105 63.208 C 51.733 62.326,49.583 58.474,49.274 58.133 C 49.132 57.977,48.703 57.264,48.320 56.550 C 47.367 54.772,46.395 53.080,45.752 52.083 C 45.457 51.625,44.916 50.688,44.550 50.000 C 43.341 47.729,42.803 46.833,42.651 46.833 C 42.568 46.833,42.500 46.747,42.500 46.640 C 42.500 46.534,42.068 45.691,41.539 44.765 C 41.011 43.840,40.392 42.722,40.164 42.281 C 39.936 41.839,39.620 41.337,39.461 41.165 C 39.301 40.993,39.007 40.529,38.806 40.134 C 38.606 39.740,38.042 38.730,37.554 37.892 C 37.066 37.053,36.667 36.298,36.667 36.215 C 36.667 36.131,36.531 35.917,36.366 35.740 C 36.046 35.397,35.036 33.706,34.722 32.988 C 34.619 32.753,33.758 31.249,32.809 29.647 C 31.860 28.046,30.821 26.231,30.500 25.614 C 30.179 24.998,29.711 24.251,29.459 23.955 C 29.207 23.659,29.001 23.351,29.000 23.270 C 29.000 23.189,28.619 22.458,28.154 21.645 L 27.308 20.167 20.809 20.167 C 15.691 20.167,14.320 20.211,14.363 20.375 M318.167 24.653 C 318.167 24.828,318.105 24.997,318.030 25.028 C 317.955 25.058,317.192 28.796,316.335 33.333 C 315.479 37.871,314.728 41.621,314.668 41.667 C 314.608 41.712,313.906 45.237,313.108 49.500 C 312.310 53.762,311.589 57.373,311.505 57.524 C 311.421 57.675,310.781 60.825,310.084 64.524 C 309.386 68.223,308.776 71.381,308.729 71.542 C 308.649 71.815,308.985 71.833,314.152 71.833 L 319.660 71.833 319.748 71.458 C 319.796 71.252,320.137 69.471,320.506 67.500 C 320.874 65.529,321.247 63.767,321.334 63.583 C 321.420 63.400,322.170 59.650,323.000 55.250 C 323.830 50.850,324.580 47.100,324.667 46.917 C 324.754 46.733,325.501 43.096,326.327 38.833 C 327.153 34.571,328.127 29.658,328.491 27.917 C 328.855 26.175,329.156 24.656,329.160 24.542 C 329.165 24.379,327.959 24.333,323.667 24.333 C 318.357 24.333,318.167 24.344,318.167 24.653 M170.917 25.436 C 164.542 26.359,159.433 30.476,158.087 35.775 C 156.734 41.102,157.889 46.287,160.971 48.716 C 161.491 49.126,162.132 49.663,162.395 49.908 C 163.001 50.474,165.197 51.499,167.667 52.370 C 168.721 52.741,169.621 53.096,169.667 53.158 C 169.712 53.220,170.237 53.447,170.833 53.662 C 175.056 55.185,176.156 56.710,175.324 59.887 C 174.584 62.714,170.541 64.570,167.560 63.453 C 165.712 62.760,164.167 60.660,164.167 58.841 C 164.167 58.475,164.076 58.162,163.958 58.119 C 163.792 58.059,163.792 57.973,163.958 57.691 C 164.073 57.497,164.167 57.262,164.167 57.169 C 164.167 57.058,162.346 57.000,158.896 57.000 L 153.625 57.000 153.697 59.512 C 153.740 61.034,153.838 62.068,153.946 62.137 C 154.044 62.199,154.211 62.663,154.318 63.167 C 154.759 65.257,156.335 67.940,157.742 68.994 C 158.159 69.306,158.500 69.615,158.500 69.680 C 158.500 70.237,162.323 71.857,164.750 72.329 C 170.091 73.368,177.668 72.064,179.885 69.724 C 180.086 69.512,180.344 69.338,180.459 69.336 C 180.681 69.333,183.097 66.981,183.886 66.000 C 185.032 64.574,186.667 60.677,186.667 59.368 C 186.667 59.089,186.755 58.832,186.863 58.796 C 187.128 58.707,187.164 53.874,186.901 53.702 C 186.800 53.637,186.673 53.299,186.619 52.952 C 186.331 51.133,184.898 48.965,183.134 47.682 C 182.373 47.128,181.600 46.555,181.417 46.408 C 180.939 46.026,179.236 45.259,176.833 44.344 C 175.688 43.908,174.338 43.362,173.833 43.131 C 173.329 42.899,172.295 42.424,171.534 42.075 C 169.386 41.089,168.476 39.790,168.759 38.114 C 169.698 32.554,177.944 33.606,177.991 39.292 L 178.000 40.333 183.167 40.333 L 188.333 40.333 188.330 38.958 C 188.323 35.875,187.655 33.408,186.284 31.395 C 185.807 30.694,185.339 29.989,185.243 29.828 C 184.490 28.555,180.960 26.470,178.438 25.808 C 177.118 25.461,172.364 25.226,170.917 25.436 M249.285 38.423 C 247.227 38.832,245.046 40.063,243.458 41.710 C 242.876 42.314,242.500 42.599,242.500 42.436 C 242.500 42.288,242.565 42.167,242.644 42.167 C 242.723 42.167,242.879 41.585,242.990 40.875 C 243.102 40.165,243.233 39.414,243.282 39.206 L 243.371 38.829 237.905 38.873 L 232.440 38.917 231.022 46.417 C 230.242 50.542,229.555 53.954,229.495 54.000 C 229.435 54.046,228.685 57.796,227.828 62.333 C 226.971 66.871,226.220 70.621,226.158 70.667 C 226.096 70.712,225.916 71.462,225.757 72.333 C 225.599 73.204,224.988 76.383,224.401 79.397 C 223.814 82.412,223.333 84.980,223.333 85.106 C 223.333 85.293,224.290 85.333,228.797 85.333 L 234.261 85.333 235.157 80.708 C 235.649 78.165,236.103 76.046,236.165 76.000 C 236.227 75.954,236.637 74.042,237.076 71.750 C 237.948 67.193,237.979 67.103,238.420 67.783 C 241.321 72.256,248.368 73.878,254.984 71.595 C 256.263 71.153,258.292 70.126,258.583 69.772 C 258.675 69.661,259.023 69.403,259.357 69.199 C 261.130 68.117,263.598 64.964,264.767 62.289 C 265.177 61.351,265.584 60.433,265.673 60.250 C 266.939 57.633,266.939 48.452,265.673 47.500 C 265.612 47.454,265.384 46.972,265.167 46.429 C 262.807 40.541,255.968 37.094,249.285 38.423 M291.126 38.328 C 289.933 38.545,287.760 39.306,287.401 39.631 C 287.226 39.790,286.873 40.055,286.615 40.220 C 286.357 40.385,285.664 40.931,285.073 41.431 C 284.483 41.932,284.000 42.309,284.000 42.269 C 284.000 42.229,284.112 41.608,284.250 40.890 C 284.387 40.171,284.500 39.415,284.500 39.208 L 284.500 38.833 279.167 38.833 C 276.233 38.833,273.834 38.890,273.834 38.958 C 273.836 39.348,272.255 47.431,272.163 47.500 C 272.047 47.587,271.873 48.460,270.089 57.917 C 269.483 61.125,268.922 63.870,268.841 64.017 C 268.760 64.164,267.998 67.952,267.148 72.434 C 266.297 76.916,265.552 80.621,265.492 80.667 C 265.431 80.712,265.218 81.650,265.017 82.750 C 264.816 83.850,264.613 84.881,264.565 85.042 C 264.483 85.315,264.822 85.333,270.069 85.333 L 275.660 85.333 275.750 84.958 C 275.799 84.752,276.020 83.646,276.240 82.500 C 278.033 73.169,278.527 70.707,278.663 70.417 C 278.749 70.233,278.949 69.412,279.106 68.592 C 279.340 67.370,279.424 67.158,279.571 67.413 C 283.061 73.478,294.239 74.462,300.617 69.265 C 302.820 67.471,303.021 67.271,303.958 65.934 C 304.478 65.191,304.997 64.508,305.111 64.417 C 305.499 64.103,306.851 60.839,307.260 59.226 C 308.540 54.181,308.116 49.270,306.060 45.321 C 305.131 43.537,303.109 41.374,301.554 40.500 C 301.020 40.200,300.546 39.901,300.500 39.834 C 299.776 38.784,293.850 37.832,291.126 38.328 M194.756 39.208 C 194.710 39.415,194.406 41.008,194.080 42.750 C 193.755 44.492,193.418 46.067,193.332 46.250 C 193.246 46.433,192.633 49.396,191.971 52.833 C 190.278 61.612,190.262 64.801,191.894 67.914 C 195.116 74.061,205.494 74.313,209.783 68.347 C 209.949 68.117,210.024 68.566,209.871 68.875 C 209.655 69.314,209.333 70.838,209.333 71.425 L 209.333 71.833 214.630 71.833 L 219.927 71.833 221.413 63.958 C 222.230 59.627,222.948 56.046,223.009 56.000 C 223.069 55.954,223.733 52.654,224.483 48.667 C 225.233 44.679,226.000 40.912,226.186 40.296 C 226.373 39.680,226.477 39.098,226.419 39.004 C 226.296 38.805,215.332 38.759,215.336 38.958 C 215.342 39.326,213.091 50.930,213.000 51.000 C 212.940 51.046,212.613 52.546,212.272 54.333 C 211.162 60.157,210.893 60.890,209.457 62.007 C 208.976 62.381,208.444 62.801,208.274 62.940 C 207.426 63.635,204.868 63.599,203.984 62.880 C 202.759 61.884,202.505 61.589,202.264 60.882 C 201.826 59.596,202.706 51.767,203.338 51.333 C 203.405 51.288,203.515 50.913,203.583 50.500 C 203.651 50.087,204.147 47.502,204.687 44.755 C 205.226 42.008,205.667 39.552,205.667 39.297 L 205.667 38.833 200.253 38.833 L 194.840 38.833 194.756 39.208 M328.549 39.208 C 328.596 39.415,329.179 42.471,329.845 46.000 C 330.511 49.529,331.103 52.454,331.160 52.500 C 331.218 52.546,331.932 56.108,332.747 60.417 C 333.561 64.725,334.282 68.287,334.347 68.333 C 334.609 68.515,334.701 69.942,334.467 70.182 C 334.154 70.502,333.709 71.264,332.598 73.381 C 332.079 74.370,331.404 75.570,331.099 76.048 C 330.793 76.526,330.073 77.817,329.498 78.917 C 328.922 80.017,328.211 81.292,327.916 81.750 C 327.308 82.696,326.000 85.071,326.000 85.229 C 326.000 85.286,328.624 85.333,331.831 85.333 L 337.662 85.333 338.056 84.708 C 338.273 84.365,338.680 83.620,338.960 83.055 C 339.241 82.489,339.777 81.501,340.152 80.859 C 340.527 80.217,340.833 79.646,340.833 79.589 C 340.833 79.532,340.965 79.344,341.127 79.171 C 341.288 78.998,341.850 78.031,342.376 77.021 C 342.902 76.012,343.552 74.825,343.820 74.385 C 344.749 72.861,346.061 70.579,346.620 69.515 C 346.929 68.928,347.370 68.223,347.601 67.949 C 347.832 67.675,348.243 67.009,348.515 66.470 C 348.788 65.930,349.293 65.023,349.639 64.453 C 349.985 63.883,350.367 63.173,350.487 62.875 C 350.608 62.577,350.764 62.333,350.835 62.333 C 350.962 62.333,352.333 60.122,352.333 59.916 C 352.333 59.818,352.721 59.163,354.980 55.450 C 355.381 54.790,355.993 53.716,356.339 53.064 C 356.685 52.412,357.232 51.532,357.555 51.109 C 357.878 50.686,358.194 50.177,358.257 49.977 C 358.321 49.777,358.761 48.969,359.236 48.182 C 359.711 47.394,360.199 46.506,360.320 46.208 C 360.441 45.910,360.598 45.667,360.668 45.667 C 360.796 45.667,362.032 43.648,362.209 43.149 C 362.262 43.001,362.799 42.074,363.402 41.088 C 364.006 40.102,364.500 39.191,364.500 39.064 C 364.500 38.872,363.531 38.833,358.701 38.833 L 352.902 38.833 351.807 40.958 C 351.204 42.127,350.099 44.273,349.352 45.727 C 348.604 47.182,347.547 49.177,347.002 50.162 C 346.458 51.147,345.760 52.507,345.452 53.185 C 345.143 53.862,344.675 54.754,344.412 55.167 C 344.150 55.579,343.658 56.479,343.321 57.167 C 342.560 58.716,342.735 59.378,341.380 49.833 C 341.230 48.779,341.058 47.879,340.997 47.833 C 340.903 47.764,339.995 41.916,339.709 39.542 L 339.623 38.833 334.044 38.833 L 328.464 38.833 328.549 39.208 M251.833 47.907 C 253.613 48.656,255.122 50.584,255.425 52.493 C 255.476 52.818,255.589 53.214,255.676 53.373 C 255.886 53.758,255.878 55.333,255.667 55.333 C 255.575 55.333,255.500 55.545,255.500 55.803 C 255.500 58.122,253.549 61.202,251.320 62.404 C 250.823 62.671,250.379 62.940,250.333 63.001 C 249.768 63.753,245.327 63.800,244.394 63.064 C 244.223 62.929,243.671 62.574,243.168 62.275 C 238.860 59.714,239.714 51.261,244.568 48.417 C 246.612 47.219,249.688 47.003,251.833 47.907 M292.257 47.590 C 295.883 48.526,297.787 52.376,296.768 56.712 C 294.977 64.337,285.473 66.224,282.306 59.583 C 281.707 58.327,281.460 54.582,281.936 53.984 C 282.039 53.855,282.253 53.351,282.412 52.863 C 283.747 48.772,288.004 46.492,292.257 47.590 M191.341 85.625 C 190.761 88.719,190.230 91.325,190.162 91.417 C 190.094 91.508,189.351 95.221,188.511 99.667 C 187.672 104.112,186.914 107.900,186.827 108.083 C 186.740 108.267,185.990 112.017,185.161 116.417 C 184.332 120.817,183.586 124.567,183.503 124.750 C 183.311 125.177,183.000 126.727,183.000 127.258 L 183.000 127.667 188.489 127.667 C 193.573 127.667,193.984 127.645,194.062 127.375 C 194.108 127.215,194.678 124.233,195.328 120.750 C 195.978 117.267,196.580 114.267,196.666 114.083 C 196.751 113.900,197.090 112.371,197.418 110.685 C 198.317 106.080,198.873 104.947,200.701 103.995 C 204.058 102.248,207.711 104.058,207.717 107.472 C 207.719 108.549,206.719 114.332,206.502 114.500 C 206.399 114.580,203.995 127.024,203.998 127.461 C 204.000 127.627,205.147 127.662,209.451 127.627 L 214.903 127.583 215.540 124.167 C 215.890 122.287,216.248 120.600,216.335 120.417 C 216.423 120.233,217.031 117.308,217.686 113.917 C 219.422 104.938,219.451 102.032,217.834 98.731 C 215.145 93.241,205.530 92.073,201.068 96.695 C 200.457 97.328,199.912 97.801,199.858 97.747 C 199.804 97.693,199.837 97.596,199.931 97.533 C 200.025 97.469,200.804 93.704,201.662 89.167 C 202.520 84.629,203.284 80.892,203.361 80.861 C 203.437 80.831,203.500 80.624,203.500 80.403 L 203.500 80.000 197.948 80.000 L 192.396 80.000 191.341 85.625 M149.944 82.116 C 149.898 82.282,149.353 85.117,148.733 88.417 C 148.113 91.717,147.558 94.454,147.499 94.500 C 147.441 94.546,146.691 98.296,145.833 102.833 C 144.975 107.371,144.225 111.121,144.167 111.167 C 144.109 111.212,143.394 114.775,142.580 119.083 C 141.765 123.392,141.028 126.965,140.942 127.025 C 140.855 127.084,140.831 127.253,140.887 127.400 C 140.997 127.685,152.335 127.826,152.332 127.542 C 152.327 127.155,154.078 118.236,154.172 118.167 C 154.234 118.121,154.336 117.783,154.398 117.417 C 154.461 117.050,154.551 116.551,154.599 116.308 L 154.686 115.865 161.218 115.788 C 167.156 115.717,167.901 115.677,169.411 115.344 C 172.026 114.768,175.181 113.520,175.951 112.757 C 176.153 112.557,176.677 112.211,177.115 111.988 C 178.999 111.030,181.690 107.864,183.069 104.985 C 187.527 95.674,182.788 84.500,173.417 82.228 C 171.553 81.776,150.068 81.674,149.944 82.116 M169.901 92.213 C 174.246 94.236,174.407 101.569,170.167 104.296 C 167.813 105.810,166.788 106.000,160.973 106.000 L 156.556 106.000 156.905 104.208 C 157.097 103.223,157.303 102.339,157.364 102.245 C 157.425 102.151,157.708 100.838,157.993 99.328 C 158.537 96.445,159.275 92.686,159.424 92.030 L 159.512 91.644 164.214 91.699 L 168.917 91.755 169.901 92.213 M236.802 94.080 C 234.535 94.410,231.669 95.428,230.750 96.231 C 230.475 96.471,230.001 96.785,229.698 96.930 C 228.949 97.286,226.833 99.125,226.833 99.419 C 226.833 99.550,226.612 99.821,226.340 100.021 C 225.701 100.494,224.552 102.253,223.850 103.833 C 223.545 104.521,223.162 105.351,222.999 105.678 C 220.849 110.000,221.493 117.955,224.326 122.073 C 224.605 122.479,224.833 122.885,224.833 122.976 C 224.833 123.114,226.573 124.711,228.151 126.021 C 230.359 127.854,235.466 128.808,239.107 128.067 C 240.377 127.808,243.069 126.699,243.426 126.286 C 243.793 125.863,246.056 123.762,245.889 124.000 C 245.737 124.217,245.167 126.966,245.167 127.482 C 245.167 127.613,246.735 127.667,250.583 127.667 C 253.563 127.667,256.000 127.630,256.000 127.585 C 256.000 127.540,256.406 125.421,256.903 122.876 C 257.399 120.332,258.041 116.975,258.329 115.417 C 258.616 113.858,258.917 112.461,258.998 112.313 C 259.078 112.164,259.840 108.376,260.691 103.896 C 261.542 99.416,262.297 95.725,262.369 95.694 C 262.441 95.664,262.500 95.420,262.500 95.153 L 262.500 94.667 257.106 94.667 L 251.713 94.667 251.336 96.708 C 250.863 99.274,250.816 99.365,250.355 98.619 C 248.250 95.213,242.426 93.263,236.802 94.080 M309.208 94.006 C 306.956 94.412,305.418 95.257,303.791 96.981 L 302.730 98.106 303.023 96.595 C 303.184 95.764,303.320 94.990,303.325 94.875 C 303.340 94.498,292.880 94.581,292.773 94.958 C 292.727 95.119,292.532 96.112,292.340 97.167 C 292.148 98.221,291.920 99.233,291.833 99.417 C 291.746 99.600,290.996 103.350,290.167 107.750 C 289.337 112.150,288.587 115.900,288.500 116.083 C 288.330 116.442,286.333 126.824,286.333 127.350 C 286.333 127.823,297.092 127.848,297.228 127.375 C 297.274 127.215,297.519 125.958,297.773 124.583 C 298.027 123.208,298.282 122.046,298.340 122.000 C 298.398 121.954,299.061 118.654,299.813 114.667 C 301.454 105.965,301.801 105.039,303.845 103.927 C 306.951 102.236,310.335 104.034,310.383 107.402 C 310.399 108.553,308.415 119.636,308.158 119.833 C 308.054 119.913,306.661 127.026,306.665 127.458 C 306.666 127.621,307.876 127.667,312.151 127.667 L 317.635 127.667 317.753 126.792 C 317.818 126.310,317.933 125.839,318.009 125.745 C 318.085 125.650,318.331 124.563,318.556 123.328 C 319.680 117.158,321.244 109.074,321.328 109.000 C 321.380 108.954,321.511 108.573,321.620 108.153 C 322.500 104.747,324.259 103.186,327.000 103.375 C 329.348 103.537,330.828 105.125,330.835 107.489 C 330.838 108.192,327.981 123.379,327.823 123.500 C 327.735 123.568,327.000 127.189,327.000 127.557 C 327.000 127.617,329.512 127.667,332.583 127.667 C 335.758 127.667,338.167 127.602,338.167 127.518 C 338.167 127.100,340.865 113.202,341.001 112.917 C 341.271 112.353,342.136 107.341,342.253 105.667 C 342.784 98.059,338.336 93.472,330.833 93.892 C 327.058 94.103,325.017 95.009,322.388 97.639 C 321.441 98.586,320.667 99.260,320.667 99.137 C 320.667 98.376,318.399 95.849,317.077 95.137 C 315.217 94.135,311.479 93.598,309.208 94.006 M360.488 93.994 C 352.792 94.974,347.150 100.457,345.306 108.750 C 344.875 110.687,345.025 116.135,345.557 117.917 C 346.037 119.521,347.249 122.167,347.504 122.167 C 347.589 122.167,347.783 122.408,347.936 122.703 C 348.331 123.469,349.958 125.128,350.792 125.616 C 351.181 125.845,351.500 126.086,351.500 126.153 C 351.500 126.986,356.172 128.231,359.333 128.242 C 363.456 128.255,365.374 127.507,368.186 124.788 C 368.851 124.144,368.992 124.065,368.925 124.371 C 368.879 124.580,368.759 125.237,368.659 125.833 C 368.559 126.429,368.437 127.086,368.387 127.294 L 368.296 127.671 373.684 127.627 L 379.072 127.583 379.647 124.500 C 379.964 122.804,380.271 121.379,380.331 121.333 C 380.390 121.287,381.135 117.581,381.986 113.096 C 382.838 108.611,383.601 104.823,383.684 104.679 C 383.766 104.535,384.209 102.429,384.668 100.000 C 385.128 97.571,385.546 95.377,385.598 95.125 L 385.693 94.667 380.282 94.667 L 374.871 94.667 374.761 95.458 C 374.325 98.583,373.999 99.621,373.656 98.981 C 371.802 95.517,365.947 93.299,360.488 93.994 M284.000 94.255 C 281.765 94.880,280.671 95.625,279.274 97.476 C 278.777 98.134,278.568 98.310,278.528 98.104 C 278.497 97.946,278.547 97.727,278.638 97.617 C 278.729 97.507,278.890 96.929,278.994 96.333 C 279.098 95.737,279.223 95.119,279.270 94.958 C 279.350 94.685,279.020 94.667,273.947 94.667 L 268.539 94.667 267.776 98.625 C 267.357 100.802,266.695 104.271,266.305 106.333 C 265.914 108.396,265.549 110.121,265.492 110.167 C 265.434 110.212,264.728 113.737,263.922 118.000 C 263.116 122.263,262.398 125.825,262.327 125.917 C 262.256 126.008,262.145 126.440,262.080 126.875 L 261.962 127.667 267.524 127.667 L 273.086 127.667 274.243 121.542 C 274.879 118.173,275.449 115.379,275.510 115.333 C 275.571 115.287,275.746 114.563,275.899 113.723 C 277.216 106.506,280.323 104.130,287.182 105.097 L 287.946 105.205 288.164 103.894 C 288.284 103.173,288.441 102.508,288.512 102.415 C 288.649 102.237,290.000 95.354,290.000 94.835 C 290.000 94.135,285.860 93.735,284.000 94.255 M243.053 103.249 C 243.580 103.386,244.318 103.668,244.694 103.874 C 245.069 104.081,245.554 104.347,245.769 104.466 C 247.758 105.562,248.629 109.812,247.577 113.285 C 245.357 120.615,234.788 121.357,233.112 114.302 C 233.007 113.861,232.864 113.500,232.794 113.500 C 232.724 113.500,232.667 112.900,232.667 112.167 C 232.667 111.433,232.725 110.833,232.795 110.833 C 232.866 110.833,233.012 110.365,233.120 109.792 C 234.001 105.131,238.613 102.093,243.053 103.249 M366.152 103.257 C 370.279 104.230,372.180 108.085,370.913 112.911 C 370.769 113.458,370.596 113.946,370.528 113.995 C 370.460 114.043,370.070 114.675,369.660 115.397 C 366.835 120.388,358.690 120.452,356.580 115.500 C 353.776 108.923,359.442 101.675,366.152 103.257 " stroke="none" fill="#040404" fill-rule="evenodd"></path><path id="path3" d="" stroke="none" fill="#407410" fill-rule="evenodd"></path><path id="path4" d="" stroke="none" fill="#440410" fill-rule="evenodd"></path><path id="path5" d="" stroke="none" fill="#040414" fill-rule="evenodd"></path></g></svg>