<svg id="svg" version="1.1" xmlns="http://www.w3.org/2000/svg" xmlns:xlink="http://www.w3.org/1999/xlink" width="400" height="152.6985519964897" viewBox="0, 0, 400,152.6985519964897"><g id="svgg"><path id="path0" d="M14.500 20.401 C 14.500 20.637,15.754 22.874,16.752 24.417 C 17.048 24.875,17.501 25.662,17.757 26.167 C 18.492 27.611,19.523 29.400,19.729 29.587 C 19.832 29.681,20.092 30.094,20.306 30.504 C 21.407 32.617,22.906 35.279,23.118 35.500 C 23.250 35.637,23.945 36.837,24.663 38.167 C 25.381 39.496,26.122 40.779,26.310 41.018 C 26.499 41.257,27.109 42.300,27.667 43.334 C 28.867 45.560,29.529 46.719,29.668 46.833 C 29.801 46.944,31.333 49.624,31.333 49.746 C 31.333 49.951,32.886 52.500,33.011 52.500 C 33.084 52.500,33.197 52.669,33.261 52.875 C 33.325 53.081,33.768 53.925,34.245 54.750 C 34.722 55.575,35.319 56.663,35.571 57.167 C 35.824 57.671,36.130 58.162,36.251 58.258 C 36.373 58.354,36.807 59.067,37.215 59.842 C 37.624 60.616,38.193 61.647,38.479 62.132 C 38.766 62.618,39.000 63.050,39.000 63.093 C 39.000 63.135,39.293 63.601,39.650 64.127 C 40.008 64.653,40.546 65.571,40.846 66.167 C 41.146 66.762,42.015 68.284,42.776 69.548 C 43.537 70.812,44.542 72.574,45.010 73.465 C 45.477 74.355,45.955 75.158,46.071 75.250 C 46.188 75.342,46.584 75.979,46.951 76.667 C 48.509 79.581,49.354 81.076,49.491 81.161 C 49.572 81.211,50.044 82.002,50.540 82.918 C 52.095 85.789,52.728 86.914,52.836 87.000 C 52.894 87.046,53.197 87.515,53.510 88.042 C 53.822 88.569,54.154 88.999,54.247 88.998 C 54.427 88.996,55.707 86.843,55.905 86.208 C 55.970 86.002,56.086 85.833,56.163 85.833 C 56.303 85.833,57.827 83.305,57.841 83.049 C 57.845 82.976,58.215 82.317,58.663 81.583 C 59.920 79.526,61.159 77.375,61.879 76.000 C 62.239 75.313,62.667 74.600,62.830 74.417 C 62.994 74.233,63.435 73.508,63.810 72.805 C 64.186 72.101,64.711 71.157,64.977 70.705 C 65.244 70.254,65.508 69.736,65.566 69.555 C 65.623 69.374,65.822 69.063,66.007 68.864 C 66.192 68.666,66.780 67.696,67.314 66.710 C 67.848 65.724,68.521 64.520,68.809 64.034 C 69.097 63.549,69.333 63.087,69.333 63.007 C 69.333 62.927,69.396 62.836,69.472 62.806 C 69.630 62.742,70.628 61.048,71.664 59.083 C 72.051 58.350,72.505 57.600,72.673 57.417 C 73.360 56.665,73.369 56.255,72.716 55.306 C 72.384 54.824,71.781 53.801,71.376 53.034 C 70.972 52.267,70.132 50.801,69.511 49.778 C 68.890 48.754,68.063 47.317,67.672 46.583 C 66.750 44.853,66.329 44.158,65.964 43.760 C 65.800 43.583,65.667 43.364,65.667 43.276 C 65.667 43.187,65.217 42.344,64.667 41.403 C 64.117 40.462,63.667 39.617,63.667 39.526 C 63.667 39.434,63.413 39.026,63.103 38.620 C 62.793 38.214,62.164 37.177,61.706 36.316 C 61.248 35.455,60.529 34.188,60.108 33.500 C 59.686 32.813,59.188 31.969,59.001 31.625 L 58.660 31.000 66.663 31.000 C 71.065 31.000,74.667 31.035,74.667 31.077 C 74.667 31.120,74.252 31.941,73.746 32.903 L 72.825 34.650 73.513 35.950 C 74.201 37.250,75.407 39.346,76.371 40.917 C 76.653 41.375,77.141 42.237,77.458 42.833 C 79.361 46.419,79.166 46.385,80.755 43.417 C 81.196 42.592,82.223 40.807,83.036 39.451 C 83.849 38.094,84.580 36.811,84.660 36.600 C 84.812 36.201,85.826 34.480,85.996 34.333 C 86.107 34.238,87.781 31.268,88.610 29.697 C 88.916 29.117,89.282 28.527,89.424 28.386 C 89.565 28.244,89.895 27.706,90.156 27.189 C 90.418 26.673,91.014 25.588,91.482 24.779 C 91.950 23.969,92.333 23.244,92.333 23.167 C 92.333 23.091,92.396 23.003,92.472 22.972 C 92.661 22.896,94.000 20.612,94.000 20.365 C 94.000 20.212,87.706 20.167,66.647 20.167 L 39.295 20.167 39.536 20.542 C 40.054 21.345,41.167 23.314,41.167 23.426 C 41.167 23.491,41.871 24.715,42.732 26.147 C 43.594 27.579,44.650 29.425,45.081 30.250 C 45.511 31.075,45.958 31.825,46.073 31.917 C 46.189 32.008,46.584 32.646,46.951 33.333 C 48.505 36.242,49.354 37.743,49.490 37.827 C 49.570 37.877,49.954 38.517,50.344 39.250 C 50.733 39.983,51.780 41.821,52.672 43.333 C 53.563 44.846,54.641 46.736,55.068 47.535 C 55.494 48.333,55.938 49.083,56.053 49.201 C 56.169 49.320,56.552 49.942,56.905 50.583 C 57.257 51.225,57.949 52.485,58.441 53.383 C 58.933 54.282,59.488 55.180,59.674 55.380 C 60.303 56.054,60.194 56.903,59.392 57.583 C 59.283 57.675,58.879 58.350,58.493 59.083 C 58.108 59.817,57.464 60.987,57.063 61.683 C 56.661 62.380,56.333 63.036,56.333 63.141 C 56.333 63.247,56.268 63.333,56.187 63.333 C 56.008 63.333,54.335 66.204,54.330 66.521 C 54.327 66.647,54.083 66.300,53.787 65.750 C 53.490 65.200,53.052 64.487,52.814 64.167 C 52.576 63.846,52.272 63.358,52.139 63.083 C 51.637 62.049,49.745 58.739,49.501 58.470 C 49.361 58.316,48.988 57.678,48.671 57.053 C 48.354 56.428,47.339 54.642,46.415 53.083 C 45.490 51.525,44.527 49.837,44.274 49.333 C 44.021 48.829,43.594 48.117,43.324 47.750 C 43.055 47.383,42.717 46.830,42.573 46.521 C 42.430 46.212,42.137 45.682,41.922 45.342 C 41.708 45.003,41.181 44.056,40.751 43.238 C 40.322 42.419,39.833 41.600,39.665 41.417 C 39.497 41.233,39.100 40.583,38.782 39.971 C 38.175 38.802,37.027 36.819,35.662 34.583 C 35.214 33.850,34.845 33.188,34.841 33.113 C 34.827 32.866,33.101 30.000,32.966 30.000 C 32.893 30.000,32.833 29.919,32.833 29.821 C 32.833 29.722,32.543 29.141,32.188 28.529 C 31.834 27.917,31.226 26.817,30.838 26.083 C 30.450 25.350,30.040 24.675,29.928 24.583 C 29.815 24.492,29.379 23.779,28.959 23.000 C 28.539 22.221,28.020 21.265,27.806 20.876 L 27.417 20.169 20.958 20.168 C 15.520 20.167,14.500 20.204,14.500 20.401 M318.113 24.458 C 318.073 24.527,317.907 25.333,317.745 26.250 C 317.583 27.167,317.400 27.954,317.339 28.000 C 317.277 28.046,316.525 31.796,315.667 36.333 C 314.809 40.871,314.059 44.621,314.000 44.667 C 313.941 44.712,313.191 48.462,312.333 53.000 C 311.475 57.538,310.725 61.288,310.666 61.333 C 310.566 61.411,308.667 71.195,308.667 71.632 C 308.667 71.785,309.966 71.833,314.135 71.833 L 319.603 71.833 320.074 69.295 C 320.333 67.899,320.609 66.643,320.688 66.504 C 320.767 66.364,321.507 62.650,322.333 58.250 C 323.160 53.850,323.898 50.137,323.975 50.000 C 324.052 49.862,324.818 46.038,325.677 41.500 C 326.536 36.962,327.287 33.212,327.345 33.167 C 327.457 33.079,329.000 25.113,329.000 24.621 C 329.000 24.316,318.290 24.156,318.113 24.458 M170.431 25.508 C 169.230 25.695,166.957 26.307,166.837 26.475 C 166.789 26.543,166.187 26.840,165.499 27.137 C 162.784 28.307,159.822 31.222,158.990 33.542 C 158.867 33.885,158.713 34.167,158.647 34.167 C 158.467 34.167,157.872 36.098,157.652 37.396 C 157.216 39.973,157.751 44.727,158.568 45.545 C 158.693 45.669,158.964 46.104,159.172 46.510 C 159.565 47.282,161.588 49.498,161.902 49.503 C 162.002 49.504,162.248 49.679,162.448 49.891 C 162.649 50.103,163.249 50.508,163.782 50.790 C 164.717 51.287,165.092 51.437,168.167 52.541 C 168.946 52.820,169.621 53.105,169.667 53.173 C 169.712 53.241,170.425 53.534,171.250 53.824 C 174.789 55.070,175.979 56.580,175.535 59.261 C 175.432 59.881,175.283 60.432,175.205 60.486 C 175.126 60.539,174.824 60.933,174.533 61.360 C 174.242 61.787,173.741 62.299,173.419 62.499 C 173.097 62.698,172.833 62.919,172.833 62.991 C 172.833 63.912,167.532 63.889,166.606 62.963 C 166.488 62.846,166.048 62.462,165.627 62.111 C 164.623 61.272,164.178 60.228,164.050 58.407 L 163.950 57.000 158.784 57.000 L 153.617 57.000 153.719 59.292 C 153.844 62.116,154.754 65.833,155.320 65.833 C 155.384 65.833,155.572 66.141,155.738 66.518 C 156.817 68.964,160.615 71.473,164.529 72.326 C 169.459 73.400,177.265 72.127,179.840 69.827 C 180.105 69.591,180.710 69.101,181.184 68.740 C 188.468 63.192,189.021 50.676,182.149 46.913 C 181.818 46.731,181.243 46.372,180.872 46.113 C 180.500 45.854,178.933 45.156,177.390 44.562 C 175.846 43.968,174.133 43.270,173.583 43.010 C 173.033 42.750,172.246 42.415,171.833 42.265 C 166.340 40.276,168.919 33.288,174.640 34.660 C 176.666 35.146,178.000 37.170,178.000 39.758 L 178.000 40.333 183.083 40.333 L 188.167 40.333 188.167 38.598 C 188.167 30.484,183.019 25.607,174.250 25.416 C 172.692 25.382,170.973 25.423,170.431 25.508 M248.699 38.593 C 247.206 38.988,245.926 39.516,245.807 39.787 C 245.733 39.955,244.719 40.667,244.554 40.667 C 244.484 40.667,244.031 41.058,243.547 41.536 C 242.591 42.480,242.562 42.447,242.917 40.833 C 243.048 40.237,243.158 39.544,243.161 39.292 L 243.167 38.833 237.847 38.833 L 232.526 38.833 232.434 39.292 C 232.384 39.544,232.150 40.800,231.915 42.083 C 231.679 43.367,231.424 44.531,231.348 44.671 C 231.272 44.812,230.511 48.599,229.657 53.088 C 228.802 57.577,228.056 61.288,227.999 61.333 C 227.941 61.379,227.228 64.942,226.413 69.250 C 225.599 73.558,224.884 77.121,224.826 77.167 C 224.767 77.212,224.404 78.938,224.018 81.000 C 223.632 83.063,223.278 84.881,223.231 85.042 C 223.150 85.315,223.484 85.333,228.642 85.333 L 234.139 85.333 234.423 84.208 C 234.709 83.070,236.085 76.351,237.279 70.254 L 237.932 66.924 238.548 67.852 C 241.859 72.841,249.990 74.156,256.800 70.804 C 258.123 70.153,261.847 67.305,262.043 66.795 C 262.090 66.674,262.535 66.007,263.033 65.313 C 263.531 64.618,264.043 63.795,264.171 63.484 C 264.298 63.172,264.494 62.823,264.606 62.709 C 266.105 61.174,267.096 53.341,266.266 49.593 C 265.959 48.207,264.932 45.457,264.594 45.116 C 264.485 45.006,263.966 44.301,263.439 43.548 C 262.418 42.090,262.008 41.716,259.925 40.344 C 256.797 38.285,252.435 37.605,248.699 38.593 M290.855 38.354 C 288.921 38.676,286.835 39.787,284.968 41.492 C 284.255 42.142,283.828 42.438,283.886 42.242 C 283.939 42.063,284.034 41.617,284.096 41.250 C 284.159 40.883,284.268 40.508,284.339 40.417 C 284.409 40.325,284.493 39.950,284.525 39.583 L 284.583 38.917 279.179 38.917 L 273.775 38.917 272.435 46.000 C 271.698 49.896,271.047 53.121,270.989 53.167 C 270.905 53.232,268.207 66.993,267.868 69.083 C 267.824 69.358,267.734 69.621,267.668 69.667 C 267.560 69.742,264.667 84.646,264.667 85.127 C 264.667 85.287,265.905 85.333,270.137 85.333 L 275.607 85.333 275.960 83.458 C 277.028 77.791,277.517 75.382,277.661 75.083 C 277.749 74.900,278.134 73.137,278.515 71.167 C 279.278 67.222,279.319 67.109,279.746 67.783 C 282.248 71.731,288.083 73.503,294.189 72.171 C 296.303 71.709,300.000 70.130,300.000 69.688 C 300.000 69.621,300.333 69.356,300.740 69.099 C 301.718 68.481,304.262 65.747,305.038 64.482 C 305.667 63.456,306.797 60.751,307.088 59.574 C 307.245 58.938,307.433 58.342,307.506 58.250 C 308.144 57.442,308.149 50.616,307.513 49.250 C 307.427 49.067,307.229 48.504,307.073 48.000 C 306.100 44.864,303.609 41.536,301.394 40.413 C 301.040 40.234,300.600 39.960,300.417 39.806 C 298.977 38.593,293.982 37.835,290.855 38.354 M193.251 46.625 C 192.438 50.910,191.723 54.454,191.663 54.500 C 191.490 54.632,190.689 59.273,190.571 60.833 C 190.408 62.978,191.060 67.092,191.626 67.486 C 191.703 67.539,191.964 67.921,192.205 68.333 C 195.250 73.530,204.046 74.224,208.700 69.634 C 209.323 69.019,209.833 68.569,209.833 68.633 C 209.833 68.697,209.721 69.387,209.583 70.167 C 209.446 70.946,209.334 71.640,209.334 71.708 C 209.333 71.777,211.691 71.833,214.572 71.833 L 219.810 71.833 219.981 70.958 C 220.076 70.477,220.419 68.696,220.745 67.000 C 221.070 65.304,221.409 63.767,221.497 63.583 C 221.586 63.400,222.337 59.650,223.167 55.250 C 223.996 50.850,224.746 47.100,224.833 46.917 C 225.004 46.555,226.333 39.675,226.333 39.150 C 226.333 38.838,226.169 38.830,220.884 38.873 L 215.435 38.917 215.217 40.167 C 215.097 40.854,214.933 41.533,214.852 41.674 C 214.772 41.816,214.010 45.604,213.158 50.091 C 212.307 54.579,211.565 58.288,211.509 58.333 C 211.453 58.379,211.276 58.843,211.116 59.363 C 210.296 62.021,207.913 63.721,205.441 63.413 C 203.541 63.175,202.018 61.304,201.993 59.178 C 201.985 58.488,204.852 43.124,205.012 43.000 C 205.104 42.929,205.839 39.316,205.835 38.958 C 205.834 38.890,203.335 38.833,200.281 38.833 L 194.729 38.833 193.251 46.625 M328.498 39.125 C 328.494 39.620,330.374 49.411,330.489 49.500 C 330.549 49.546,331.299 53.296,332.156 57.833 C 333.013 62.371,333.762 66.121,333.821 66.167 C 333.879 66.212,334.080 67.050,334.267 68.028 C 334.631 69.934,334.591 70.219,333.834 71.083 C 333.564 71.392,332.543 73.248,331.230 75.818 C 330.930 76.405,330.614 76.930,330.529 76.985 C 330.443 77.039,329.794 78.171,329.085 79.500 C 327.398 82.665,327.267 82.902,327.156 83.000 C 326.966 83.167,326.000 84.963,326.000 85.147 C 326.000 85.287,327.554 85.326,331.852 85.294 L 337.704 85.250 338.364 84.000 C 339.272 82.280,340.414 80.247,341.031 79.250 C 341.315 78.792,341.959 77.629,342.464 76.667 C 342.968 75.704,343.539 74.693,343.732 74.419 C 344.059 73.956,345.049 72.231,346.454 69.674 C 346.779 69.082,347.146 68.497,347.269 68.374 C 347.392 68.251,347.767 67.647,348.101 67.033 C 348.435 66.419,349.074 65.292,349.521 64.529 C 349.968 63.766,350.333 63.078,350.333 63.001 C 350.333 62.924,350.400 62.836,350.481 62.806 C 350.622 62.753,352.333 59.948,352.333 59.770 C 352.333 59.618,353.555 57.591,353.788 57.357 C 353.912 57.232,354.208 56.745,354.446 56.276 C 354.684 55.806,355.045 55.158,355.247 54.836 C 355.450 54.514,355.892 53.739,356.228 53.114 C 356.565 52.489,356.971 51.839,357.130 51.668 C 357.289 51.497,357.668 50.884,357.974 50.304 C 358.716 48.893,360.216 46.271,360.340 46.167 C 360.460 46.065,361.945 43.539,362.495 42.500 C 362.713 42.087,363.085 41.456,363.321 41.098 C 364.151 39.836,364.486 39.248,364.493 39.040 C 364.498 38.873,363.275 38.838,358.640 38.873 L 352.781 38.917 351.657 41.167 C 351.040 42.404,350.457 43.502,350.362 43.605 C 350.268 43.709,349.491 45.209,348.637 46.938 C 347.782 48.667,346.976 50.194,346.845 50.332 C 346.714 50.470,346.270 51.296,345.859 52.167 C 345.448 53.038,344.543 54.797,343.848 56.078 L 342.584 58.405 342.391 57.244 C 342.130 55.670,341.771 53.269,341.159 49.000 C 340.876 47.029,340.579 45.267,340.498 45.083 C 340.416 44.900,340.194 43.625,340.003 42.250 C 339.813 40.875,339.615 39.544,339.565 39.292 L 339.474 38.833 333.987 38.833 C 328.873 38.833,328.500 38.853,328.498 39.125 M250.893 47.596 C 257.041 49.174,257.277 59.614,251.230 62.505 C 250.783 62.719,250.377 62.952,250.327 63.024 C 249.827 63.754,244.752 63.749,244.167 63.018 C 244.121 62.960,243.778 62.716,243.405 62.474 C 242.776 62.067,242.194 61.515,241.337 60.511 C 240.125 59.091,240.092 52.509,241.294 51.971 C 241.362 51.941,241.781 51.373,242.226 50.708 C 244.119 47.883,247.408 46.702,250.893 47.596 M293.281 47.988 C 298.554 50.418,298.021 59.699,292.446 62.525 C 292.063 62.719,291.710 62.940,291.661 63.016 C 291.190 63.743,286.213 63.778,285.687 63.059 C 285.630 62.981,285.246 62.737,284.833 62.518 C 281.294 60.638,280.586 54.289,283.508 50.635 C 283.779 50.296,284.000 49.950,284.000 49.865 C 284.000 49.557,286.551 47.995,287.474 47.738 C 287.992 47.594,288.492 47.445,288.583 47.407 C 289.289 47.117,292.163 47.472,293.281 47.988 M192.359 80.792 C 192.266 81.227,192.099 82.108,191.989 82.750 C 191.879 83.392,191.735 83.954,191.670 84.000 C 191.605 84.046,190.852 87.796,189.996 92.333 C 189.140 96.871,188.390 100.621,188.330 100.667 C 188.269 100.712,187.555 104.275,186.742 108.583 C 185.930 112.892,185.217 116.454,185.157 116.500 C 185.066 116.570,182.993 127.173,182.998 127.542 C 182.999 127.610,185.459 127.667,188.465 127.667 L 193.929 127.667 194.412 125.042 C 194.678 123.598,194.944 122.379,195.005 122.333 C 195.065 122.287,195.166 121.987,195.230 121.667 C 195.293 121.346,195.935 118.004,196.657 114.241 C 197.809 108.231,198.036 107.270,198.517 106.351 C 200.834 101.932,207.177 102.400,207.608 107.022 C 207.704 108.061,205.444 120.967,204.999 121.917 C 204.882 122.166,203.833 127.291,203.833 127.612 C 203.833 127.748,214.823 127.651,214.908 127.515 C 214.959 127.431,215.680 123.775,216.509 119.390 C 217.338 115.004,218.088 111.267,218.174 111.083 C 219.441 108.398,219.367 101.911,218.038 99.250 C 215.034 93.231,205.973 91.851,201.042 96.662 C 200.469 97.221,199.999 97.620,199.998 97.548 C 199.993 97.183,201.583 89.071,201.674 89.000 C 201.732 88.954,202.132 87.042,202.563 84.750 C 202.994 82.458,203.387 80.452,203.435 80.292 C 203.517 80.018,203.183 80.000,198.025 80.000 L 192.528 80.000 192.359 80.792 M150.001 81.948 C 150.005 82.322,148.767 88.595,148.675 88.667 C 148.617 88.712,147.913 92.237,147.112 96.500 C 146.311 100.763,145.591 104.368,145.512 104.511 C 145.433 104.655,144.682 108.405,143.843 112.844 C 143.003 117.284,142.246 121.067,142.159 121.250 C 141.970 121.647,141.000 126.686,141.000 127.267 L 141.000 127.671 146.693 127.627 L 152.387 127.583 153.481 121.724 L 154.576 115.865 161.163 115.788 C 167.003 115.720,167.923 115.673,169.280 115.371 C 176.825 113.693,182.286 108.861,184.107 102.250 C 185.338 97.781,184.250 90.661,181.946 88.113 C 181.683 87.822,181.134 87.162,180.726 86.647 C 180.046 85.787,178.832 84.667,178.581 84.667 C 178.524 84.667,178.163 84.452,177.780 84.190 C 176.670 83.430,175.018 82.665,173.667 82.285 C 172.355 81.916,149.998 81.597,150.001 81.948 M169.750 92.133 C 175.747 94.883,173.959 103.908,167.067 105.671 C 165.740 106.010,156.664 106.188,156.668 105.875 C 156.669 105.806,157.002 104.025,157.409 101.917 C 157.816 99.808,158.233 97.633,158.336 97.083 C 158.439 96.533,158.591 95.957,158.673 95.802 C 158.756 95.647,158.987 94.648,159.188 93.580 L 159.554 91.640 164.235 91.695 C 168.701 91.748,168.955 91.768,169.750 92.133 M237.333 93.994 C 228.501 95.137,222.255 102.349,221.883 111.833 C 221.649 117.807,223.518 122.588,227.120 125.228 C 227.558 125.549,228.046 125.927,228.204 126.068 C 229.680 127.386,232.791 128.235,236.167 128.242 C 240.267 128.249,242.454 127.372,245.203 124.618 C 245.550 124.270,245.833 124.008,245.833 124.035 C 245.833 124.062,245.683 124.871,245.500 125.833 C 245.317 126.795,245.167 127.602,245.167 127.625 C 245.167 127.648,247.587 127.667,250.545 127.667 L 255.923 127.667 256.820 122.875 C 257.313 120.240,257.773 118.008,257.841 117.917 C 257.909 117.825,258.662 114.075,259.513 109.583 C 260.364 105.092,261.109 101.379,261.168 101.333 C 261.228 101.287,261.520 99.938,261.817 98.333 C 262.115 96.729,262.399 95.247,262.448 95.039 L 262.537 94.662 257.144 94.706 L 251.750 94.750 251.519 96.083 C 251.392 96.817,251.228 97.456,251.155 97.503 C 251.082 97.551,250.970 97.980,250.907 98.458 L 250.791 99.325 250.323 98.678 C 249.719 97.845,248.316 96.500,248.050 96.500 C 247.937 96.500,247.770 96.360,247.679 96.190 C 246.926 94.783,240.984 93.521,237.333 93.994 M309.242 94.004 C 306.822 94.484,305.289 95.298,303.708 96.942 C 303.135 97.537,302.667 98.000,302.667 97.971 C 302.667 97.941,302.779 97.329,302.917 96.610 C 303.335 94.426,303.954 94.667,297.917 94.667 C 295.029 94.667,292.667 94.723,292.668 94.792 C 292.672 95.160,290.924 104.096,290.834 104.167 C 290.775 104.212,290.025 107.962,289.167 112.500 C 288.309 117.037,287.558 120.787,287.499 120.833 C 287.411 120.902,286.167 127.175,286.167 127.552 C 286.167 127.615,288.635 127.667,291.651 127.667 L 297.135 127.667 297.255 126.792 C 297.320 126.310,297.429 125.879,297.496 125.833 C 297.564 125.787,298.320 122.037,299.177 117.500 C 300.034 112.962,300.776 109.212,300.826 109.167 C 300.876 109.121,301.046 108.577,301.204 107.958 C 302.067 104.574,303.740 103.146,306.576 103.374 C 308.795 103.552,310.115 104.867,310.291 107.076 C 310.370 108.065,307.619 123.447,307.325 123.667 C 307.263 123.712,307.084 124.462,306.928 125.333 C 306.771 126.204,306.603 127.085,306.554 127.292 L 306.464 127.667 312.052 127.667 L 317.640 127.667 317.734 127.208 C 317.785 126.956,318.432 123.525,319.172 119.583 C 319.912 115.642,320.587 112.289,320.672 112.133 C 320.757 111.977,320.978 110.987,321.164 109.931 C 321.958 105.428,323.358 103.631,326.269 103.379 C 328.092 103.222,328.962 103.685,330.552 105.663 C 330.813 105.987,330.826 109.796,330.567 109.964 C 330.466 110.030,329.682 113.796,328.824 118.333 C 327.966 122.871,327.205 126.608,327.132 126.639 C 327.059 126.669,327.000 126.913,327.000 127.181 L 327.000 127.667 332.489 127.667 C 337.573 127.667,337.984 127.645,338.062 127.375 C 338.108 127.215,338.651 124.383,339.269 121.083 C 339.887 117.783,340.442 115.046,340.503 115.000 C 340.564 114.954,340.938 113.229,341.333 111.167 C 342.698 104.053,342.371 100.179,340.190 97.603 C 338.225 95.283,336.677 94.418,333.764 94.012 C 328.859 93.330,325.177 94.562,322.015 97.942 L 320.705 99.342 320.337 98.635 C 318.489 95.091,313.743 93.110,309.242 94.004 M360.250 94.013 C 358.016 94.321,354.574 95.457,354.083 96.049 C 353.992 96.160,353.654 96.383,353.333 96.546 C 351.468 97.491,348.265 100.940,347.454 102.875 C 347.272 103.310,347.064 103.667,346.993 103.667 C 346.511 103.667,345.294 107.907,344.985 110.666 C 344.562 114.435,345.670 120.444,346.982 121.500 C 347.174 121.655,348.000 122.810,348.000 122.924 C 348.000 123.243,349.465 124.718,350.416 125.356 C 351.011 125.756,351.499 126.138,351.499 126.206 C 351.505 127.111,357.074 128.448,360.148 128.283 C 362.663 128.148,366.500 126.862,366.500 126.153 C 366.500 126.063,366.631 125.944,366.792 125.888 C 366.952 125.832,367.477 125.406,367.958 124.941 C 368.440 124.475,368.833 124.167,368.833 124.256 C 368.833 124.344,368.721 125.005,368.583 125.723 C 368.165 127.908,367.536 127.667,373.655 127.667 L 378.976 127.667 379.150 126.792 C 379.245 126.310,379.478 125.054,379.667 124.000 C 379.857 122.946,380.078 121.963,380.159 121.815 C 380.240 121.668,381.002 117.880,381.851 113.398 C 382.701 108.917,383.445 105.212,383.504 105.167 C 383.608 105.087,385.505 95.312,385.502 94.875 C 385.500 94.713,384.324 94.667,380.178 94.667 L 374.857 94.667 374.685 95.542 C 374.591 96.023,374.389 97.067,374.237 97.861 L 373.960 99.305 373.081 98.269 C 372.598 97.700,371.913 97.015,371.560 96.748 C 371.206 96.481,370.820 96.168,370.703 96.054 C 369.158 94.552,363.855 93.516,360.250 94.013 M284.028 94.256 C 282.036 94.688,280.329 95.874,279.054 97.712 C 278.484 98.533,278.481 98.518,278.841 96.667 C 279.010 95.796,279.153 94.989,279.158 94.873 C 279.165 94.706,278.057 94.671,273.882 94.706 L 268.597 94.750 268.211 96.833 C 267.999 97.979,267.754 99.067,267.666 99.250 C 267.578 99.433,266.864 102.996,266.080 107.167 C 265.296 111.337,264.586 114.900,264.502 115.083 C 264.417 115.267,264.084 116.767,263.761 118.417 C 263.136 121.613,262.000 127.551,262.000 127.623 C 262.000 127.647,264.470 127.667,267.488 127.667 L 272.976 127.667 273.150 126.792 C 273.245 126.310,273.516 124.867,273.751 123.583 C 273.987 122.300,274.251 121.100,274.338 120.917 C 274.425 120.733,274.873 118.617,275.333 116.214 C 276.527 109.977,276.860 109.121,278.995 106.785 C 280.499 105.140,282.740 104.580,286.151 104.998 C 287.085 105.112,287.885 105.171,287.928 105.128 C 288.050 105.006,290.005 94.616,289.922 94.533 C 289.432 94.043,285.797 93.872,284.028 94.256 M243.583 103.406 C 245.464 104.022,246.592 105.014,247.279 106.653 C 247.532 107.256,247.816 107.803,247.911 107.869 C 248.154 108.037,248.134 111.679,247.887 112.183 C 247.779 112.403,247.572 112.961,247.427 113.423 C 244.960 121.281,233.834 121.146,232.833 113.246 C 232.004 106.709,237.714 101.483,243.583 103.406 M366.164 103.260 C 368.209 103.742,369.798 105.061,370.671 107.000 C 371.405 108.632,371.037 114.500,370.200 114.500 C 370.132 114.500,369.832 114.945,369.533 115.490 C 366.877 120.321,358.647 120.397,356.529 115.609 C 353.617 109.027,359.367 101.658,366.164 103.260 " stroke="none" fill="#fcfcfc" fill-rule="evenodd"></path><path id="path1" d="M106.167 20.327 C 106.167 20.415,106.024 20.621,105.849 20.785 C 105.674 20.949,105.030 22.014,104.417 23.152 C 103.804 24.289,102.946 25.789,102.510 26.485 C 102.075 27.181,101.208 28.688,100.584 29.833 C 99.960 30.979,99.274 32.149,99.058 32.432 C 98.843 32.716,98.667 32.991,98.667 33.044 C 98.667 33.096,98.343 33.689,97.946 34.361 C 97.550 35.033,96.982 36.071,96.684 36.667 C 96.386 37.262,96.038 37.831,95.911 37.930 C 95.783 38.030,95.334 38.765,94.912 39.564 C 94.491 40.364,93.888 41.445,93.573 41.967 C 93.258 42.489,93.001 42.996,93.000 43.094 C 93.000 43.191,92.868 43.416,92.707 43.594 C 92.296 44.047,91.998 44.533,91.079 46.250 C 90.637 47.075,89.629 48.837,88.838 50.167 C 88.047 51.496,87.142 53.095,86.826 53.720 C 86.511 54.345,86.139 54.983,85.999 55.137 C 85.744 55.419,84.062 58.335,83.426 59.598 C 83.238 59.972,82.812 60.685,82.480 61.181 C 82.148 61.677,81.327 63.096,80.655 64.333 C 79.983 65.571,79.387 66.621,79.331 66.667 C 79.175 66.795,78.139 68.584,77.258 70.250 C 76.821 71.075,76.299 71.975,76.097 72.250 C 75.723 72.760,75.304 73.491,73.717 76.394 C 73.223 77.298,72.705 78.152,72.566 78.291 C 72.427 78.431,72.145 78.891,71.940 79.314 C 71.735 79.737,71.265 80.608,70.895 81.250 C 70.525 81.892,70.059 82.740,69.859 83.134 C 69.659 83.529,69.361 83.996,69.198 84.172 C 69.034 84.348,68.576 85.113,68.180 85.871 C 67.784 86.629,67.169 87.751,66.814 88.362 C 66.458 88.974,66.167 89.555,66.167 89.654 C 66.167 89.753,66.099 89.833,66.016 89.833 C 65.863 89.833,65.326 90.729,64.117 93.000 C 63.751 93.688,63.211 94.625,62.918 95.083 C 61.862 96.736,60.333 99.479,60.333 99.724 C 60.333 99.861,60.708 100.623,61.167 101.417 C 61.625 102.210,62.000 102.916,62.000 102.986 C 62.000 103.056,62.290 103.518,62.645 104.015 C 62.999 104.511,63.498 105.329,63.752 105.833 C 64.430 107.175,67.020 111.500,67.146 111.500 C 67.289 111.500,67.554 111.064,68.451 109.351 C 68.864 108.562,69.331 107.767,69.488 107.583 C 69.757 107.269,71.611 104.004,72.139 102.917 C 72.272 102.642,72.514 102.267,72.677 102.083 C 72.839 101.900,73.416 100.924,73.959 99.915 C 74.501 98.906,75.376 97.373,75.903 96.508 C 76.430 95.643,77.353 94.031,77.954 92.926 C 78.556 91.821,79.224 90.705,79.440 90.446 C 79.657 90.186,79.833 89.911,79.833 89.834 C 79.833 89.757,80.164 89.136,80.567 88.453 C 80.971 87.770,81.507 86.792,81.758 86.278 C 82.010 85.764,82.360 85.189,82.536 85.000 C 82.711 84.811,83.193 84.018,83.605 83.236 C 84.017 82.455,84.612 81.388,84.927 80.866 C 85.242 80.344,85.499 79.837,85.500 79.740 C 85.500 79.642,85.632 79.417,85.793 79.240 C 86.206 78.784,86.505 78.296,87.419 76.583 C 87.859 75.758,88.742 74.221,89.381 73.167 C 90.019 72.112,90.877 70.612,91.286 69.833 C 91.696 69.054,92.215 68.173,92.440 67.876 L 92.849 67.335 105.026 67.293 L 117.204 67.250 117.853 66.025 C 118.211 65.351,118.717 64.489,118.979 64.108 C 119.518 63.324,121.275 60.218,121.682 59.328 C 121.830 59.004,122.076 58.615,122.228 58.463 C 122.380 58.311,122.775 57.675,123.106 57.051 C 123.436 56.427,124.035 55.347,124.437 54.650 C 124.838 53.954,125.167 53.312,125.167 53.223 C 125.167 53.135,125.302 52.917,125.468 52.739 C 125.800 52.383,127.167 50.135,127.167 49.945 C 127.167 49.879,127.843 48.698,128.669 47.320 C 129.496 45.942,130.521 44.163,130.948 43.366 C 131.374 42.569,132.011 41.495,132.362 40.980 C 132.713 40.464,133.000 39.991,133.000 39.927 C 133.000 39.864,133.375 39.177,133.833 38.401 C 134.291 37.626,134.769 36.749,134.895 36.454 C 135.022 36.158,135.308 35.708,135.532 35.452 C 135.755 35.196,136.193 34.484,136.505 33.869 C 136.816 33.253,137.430 32.136,137.869 31.386 C 138.308 30.636,138.667 29.942,138.667 29.844 C 138.667 29.747,138.727 29.667,138.800 29.667 C 138.933 29.667,139.725 28.330,140.923 26.083 C 141.265 25.442,141.786 24.542,142.080 24.083 C 142.988 22.666,144.167 20.564,144.167 20.360 C 144.167 20.214,139.489 20.167,125.167 20.167 C 113.125 20.167,106.167 20.225,106.167 20.327 M124.599 31.583 C 124.449 31.812,123.982 32.655,123.562 33.458 C 123.141 34.260,122.633 35.142,122.432 35.417 C 122.041 35.951,120.478 38.708,119.786 40.083 C 119.555 40.542,119.202 41.104,119.000 41.333 C 118.799 41.563,118.483 42.050,118.299 42.417 C 117.607 43.793,115.751 47.092,115.551 47.299 C 115.437 47.417,114.992 48.167,114.563 48.965 C 114.135 49.764,113.026 51.708,112.100 53.285 L 110.417 56.154 104.875 56.160 C 101.827 56.164,99.333 56.130,99.333 56.085 C 99.333 55.957,101.309 52.469,103.141 49.362 C 103.448 48.842,104.145 47.602,104.690 46.606 C 105.234 45.611,105.794 44.682,105.934 44.542 C 106.073 44.403,106.355 43.943,106.560 43.519 C 106.765 43.096,107.235 42.225,107.605 41.583 C 107.975 40.942,108.447 40.082,108.654 39.674 C 108.861 39.265,109.130 38.853,109.251 38.757 C 109.373 38.662,109.825 37.908,110.257 37.083 C 110.689 36.258,111.640 34.590,112.370 33.375 L 113.699 31.167 119.285 31.167 L 124.872 31.167 124.599 31.583 M97.697 78.208 C 97.516 78.506,97.051 79.350,96.664 80.083 C 96.276 80.817,95.901 81.454,95.829 81.500 C 95.681 81.595,93.570 85.336,92.985 86.542 C 92.773 86.977,92.544 87.333,92.475 87.333 C 92.406 87.333,92.074 87.840,91.736 88.458 C 90.224 91.232,89.268 92.923,89.169 93.000 C 89.064 93.081,88.017 94.920,86.747 97.250 C 86.397 97.892,85.936 98.649,85.722 98.932 C 85.508 99.216,85.333 99.491,85.333 99.544 C 85.333 99.596,85.009 100.189,84.613 100.861 C 84.217 101.533,83.653 102.556,83.361 103.134 C 83.068 103.712,82.684 104.340,82.508 104.530 C 82.331 104.719,81.912 105.409,81.575 106.062 C 81.028 107.126,79.836 109.287,79.533 109.767 C 79.469 109.868,79.221 110.243,78.983 110.600 C 78.744 110.958,78.187 111.925,77.745 112.750 C 77.303 113.575,76.735 114.587,76.484 115.000 C 75.483 116.641,74.329 118.655,73.604 120.027 L 72.841 121.471 73.277 122.277 C 74.754 125.009,75.777 126.814,76.095 127.250 C 76.296 127.525,76.739 128.275,77.080 128.917 C 79.414 133.312,79.235 133.264,80.962 129.970 C 81.716 128.533,82.527 127.118,82.665 127.000 C 82.789 126.894,84.358 124.129,85.194 122.543 C 85.544 121.880,85.950 121.205,86.097 121.043 C 86.414 120.696,88.559 116.856,88.939 115.958 C 89.084 115.615,89.264 115.333,89.339 115.333 C 89.477 115.333,90.000 114.464,91.042 112.500 C 91.359 111.904,91.848 111.042,92.130 110.583 C 92.917 109.304,94.403 106.711,95.075 105.445 C 95.406 104.819,95.825 104.150,96.004 103.958 C 96.183 103.765,96.379 103.452,96.439 103.262 C 96.499 103.072,96.722 102.642,96.934 102.306 C 97.146 101.970,97.669 101.032,98.096 100.223 C 98.523 99.413,99.008 98.600,99.174 98.417 C 99.339 98.233,99.790 97.483,100.175 96.750 C 100.764 95.631,101.895 93.587,102.307 92.900 C 102.367 92.799,102.612 92.424,102.850 92.067 C 103.089 91.709,103.646 90.742,104.088 89.917 C 104.530 89.092,105.098 88.079,105.349 87.667 C 106.110 86.416,107.892 83.301,108.334 82.447 C 108.563 82.006,108.882 81.502,109.043 81.328 C 109.316 81.033,111.000 77.961,111.000 77.758 C 111.000 77.708,108.081 77.667,104.514 77.667 L 98.027 77.667 97.697 78.208 " stroke="none" fill="#dec20d" fill-rule="evenodd"></path><path id="path2" d="" stroke="none" fill="#e4d0100" fill-rule="evenodd"></path><path id="path3" d="" stroke="none" fill="#e4d0100" fill-rule="evenodd"></path><path id="path4" d="" stroke="none" fill="#e4d0100" fill-rule="evenodd"></path></g></svg>